<svg xmlns="http://www.w3.org/2000/svg" xml:space="preserve" viewBox="0 0 19.856859 18.048281"><path fill="#f05d5d" d="M15.822063.00198235c-.592424-.01771395-1.163443.08329352-1.713074.30282442-.742827.2911138-1.414024.74240453-2.013314 1.35340583-.597697.6010145-1.092152 1.3260855-1.48363 2.1750613-.20631.4586444-.376494.8509077-.510563 1.1777056-.1324717.3168119-.2304129.4805129-.293522.4909265-.0714987-.00117-.1443097-.1203711-.2191078-.3576015-.0831919-.2488136-.1859311-.5058387-.3074754-.7710125-.176684-.3046943-.3838966-.5783834-.621667-.8211378-.2461644-.2543357-.5311162-.4583239-.8547282-.6123665-.3335973-.1556388-.7146-.236911-1.1435993-.2439129-.9394859-.0167675-1.7728073.1981503-2.4995892.645438-.7267818.4472866-1.3550318 1.0488562-1.8851562 1.804024-.5285311.7451821-.9606491 1.5924715-1.29656204 2.5424811-.33431939.9400219-.57971885 1.8996855-.73587267 2.8783771-.23901058 1.497996-.30257786 2.7629-.19068552 3.7946.11189233 1.031699.44317298 1.842163.99425413 2.431893.5510811.58973 1.3612555.970005 2.4298265 1.140499.439411.07011.9916799.106885 1.6567466.110587.6534849.0121 1.3769771-.000111 2.1714432-.03721.7944659-.03709 1.6022961-.09254 2.423108-.166398.8208129-.07386 1.6125629-.157747 2.3750489-.251148.762486-.0934 1.448255-.188959 2.057756-.286287.976558-.151413 1.770875-.377705 2.382283-.679545.611408-.301842 1.101338-.710096 1.470195-1.224732.380436-.52303.681214-1.187046.901753-1.99161.232119-.812956.440924-1.803474.627352-2.971911.129066-.8089181.218418-1.655169.267167-2.5383465.05874-.8815841.06159-1.7360555.0093-2.5636683-.040704-.8360011-.141444-1.5842195-.302305-2.2448203-.159269-.6705865-.38371-1.1880815-.673861-1.5518425-.280163-.3621684-.624434-.6779037-1.031979-.94774628-.417529-.27143568-.880776-.4479024-1.390095-.52916606-.202229-.03226638-.401972-.05145775-.599446-.05736564M14.084701 5.1675591c.09839-.00286.200032.00394.304891.020667.379493.060549.691807.2229878.936378.487309.236178.2527413.410645.6034956.523482 1.0516157.11443.4381342.163033.9681524.145728 1.5900842-.01731.6219312-.09056 1.337204-.219625 2.146122-.06692.419439-.23026.767222-.489376 1.043347-.269102.274531-.594251.483905-.975651.627868-.389793.132384-.802278.215104-1.237651.248047-.44536.03135-.877639.0137-1.297078-.05323-.169772-.02709-.298386-.08866-.385506-.184485-.08712-.09582-.14592-.207574-.176734-.33538-.0408-.129401-.06021-.265761-.05788-.408761.0023-.143.01292-.27445.03205-.39429.06852-.429425.155977-.9124.261998-1.4484903.107615-.546078.245368-1.087155.412895-1.6236737.157541-.5381078.352409-1.023898.585491-1.457788.234676-.4438776.514467-.7835321.838709-1.0185428.236885-.1849432.502728-.2818302.797884-.2904214M6.0758926 6.7746939c.1024546-.0002908.2073531.00819.3147092.025322.3794919.060549.663837.2340673.8536945.5203816.1898576.2863144.3228649.6401781.3989423 1.0619511.047284.3454925.076382.7086797.087333 1.0893389.01095.3806599.00122.7939314-.028939 1.2397174-.040149.444193-.1020977.931085-.1865482 1.460377-.046209.289612-.1869817.49741-.4221955.623735-.2352137.126324-.5587874.197782-.971.21394-.1330143-.000737-.2819185.000699-.4464848.0052-.1645663.0045-.3339435.0085-.5084965.01137-.1745529.0029-.3434547.0014-.5064291-.0041-.1713655-.0171-.3218254-.03613-.4516523-.05684-.3295588-.0526509-.5793336-.1897989-.7487916-.4114129-.1678645-.231601-.2661681-.513107-.2950726-.845427-.0388942-.333913-.0289834-.685727.0299726-1.055233.0748899-.469371.2063618-.9399814.3942911-1.4117995.1795371-.483398.4085443-.9233346.6867801-1.3192994.268249-.3975573.5826099-.7003251.9436113-.9089889.2632604-.1576922.5489116-.2373457.8562788-.2382277m5.2963171 7.1773395c.04782.0017.0979.01349.149862.03566.07197.02873.142578.09495.21239.198955.06593.09902.09641.199427.09095.301273-.0055.10184-.03116.197621-.07648.287323-.04477.09246-.102802.175858-.174149.25063-.06858.07421-.132493.13485-.192237.181385-.169828.129082-.341956.232927-.516248.311091-.173739.08091-.343957.142302-.511079.184485-.163805.04437-.323587.07358-.4790413.08785-.1555196.01395-.3015007.01743-.4382157.01033-.3193688-.01361-.6249802-.07329-.9167406-.178796l4e-7-.000516c-.068656-.02654-.1302172-.05986-.1844856-.100766-.057043-.04036-.1044733-.08882-.1415935-.144694-.037123-.05586-.061662-.121086-.073897-.19637-.011693-.0725-.00796-.154194.011365-.244431.023727-.111263.066722-.191983.1286727-.241846.059194-.04928.1198908-.08295.1824171-.101285.073657-.02023.1530517-.02604.2382296-.01757.1837742.02638.3589475.03896.5255485.03721.1666001-.0018.3240053-.01349.4723229-.03462s.2870951-.04879.4154788-.0832c.128383-.0344.245636-.07264.352432-.114205.248451-.09591.47124-.212423.668177-.34985.06583-.0449.135681-.07034.209289-.07648.01548-.0018.03109-.0021.04702-.0015"/></svg>
