
<svg xmlns="http://www.w3.org/2000/svg" xml:space="preserve" viewBox="0 0 93.989899 22.443588"><path fill="#f05d5d" d="M-71.913013 84.466616c-.075848-.587815-.265566-1.135787-.568955-1.643963-.404518-.687681-.955926-1.279388-1.65372-1.774923-.687681-.495535-1.481602-.869571-2.381655-1.122394-.485422-.131469-.8996-.237722-1.24344-.318626-.333727-.080901-.510815-.151825-.531042-.212505-.010112-.070791.096127-.161473.318612-.272715.232598-.121356.470225-.263309.712936-.425116.27305-.222485.510672-.470232.712931-.743281.212373-.283163.368916-.596696.470046-.940537.101133-.353953.121359-.743002.060679-1.167746-.131468-.930393-.475-1.719443-1.031213-2.366672-.556212-.647229-1.249255-1.172848-2.078517-1.577366-.81915-.404518-1.723941-.697739-2.715011-.879772-.980956-.182033-1.967298-.273162-2.958369-.273162-1.516943 0-2.776064.136526-3.777247.409576s-1.749327.72789-2.244862 1.365006-.743408 1.497087-.743408 2.579174c0 .444969.050703.996134.151832 1.653477.091016.647228.217068 1.35976.378876 2.138458.161807.778698.343847 1.567701.546106 2.366624.20226.798924.409853 1.567566.622225 2.305812.212373.738245.414787 1.400393.606933 1.986945.303389.940504.652007 1.689245 1.046411 2.245457.394406.556213.874754.975699 1.441079 1.258862.576439.293275 1.279552.485673 2.108814.57669.839375.10113 1.85042.15126 3.033636.15126.81915 0 1.668909-.045097 2.548736-.136114.879827-.080904 1.724075-.212714 2.533112-.394747.819149-.17192 1.542149-.389291 2.169153-.652228.637116-.262937 1.112784-.566112 1.426285-.909953.313502-.333727.57105-.723445.773309-1.168416.202259-.455082.303532-.940347.303532-1.456108 0-.204787-.012522-.405059-.037804-.600997m7.1079 45.096384c-.028659-.20155-.073783-.40341-.135898-.60575-.201255-.6556-.498509-1.27725-.891535-1.86514-.393024-.58787-.858842-1.03824-1.397706-1.35108-.536379-.30473-1.120538-.36013-1.751862-.16633-.396599.12175-.689047.42369-.877352.90662-.185819.49101-.136948 1.19791.146302 2.12062.211193.68797.500201 1.31222.8671 1.87269.366898.56048.800531.97665 1.300206 1.24837.502159.27983 1.056392.3265 1.663433.14016.388507-.11927.668144-.33324.838905-.6425.181313-.30366.272963-.65529.274496-1.05429.004796-.20075-.00743-.40182-.036089-.60337m.822617 10.65921c-.030279-.16175-.074103-.33658-.131871-.52476-.191318-.62323-.444243-1.08609-.758398-1.38819-.311673-.29402-.74306-.50252-1.294498-.62551-.159958-.0306-.340248-.05462-.540675-.07282-.20043-.0182-.405115-.03556-.613633-.05123l-.617993-.0228c-.299399-.02323-.525621-.08219-.67869-.17691-.150581-.08662-.271599-.22184-.363608-.40616-.110039-.2142-.239691-.46237-.38828-.74445-.146106-.27399-.30297-.58426-.471435-.93109-.228173-.42593-.465552-.76511-.711267-1.01737-.237622-.25476-.516095-.41296-.836011-.47416-.319918-.06124-.714792-.01953-1.184237.12458-.388506.11927-.667276.29326-.836118.52222-.168842.22897-.217071.5184-.145091.86828.035986.17494.074347.35773.115307.54886.051535.19674.09799.39111.13895.58224.049029.18865.087703.35829.116263.50894.05274.25836.067004.49274.04321.70375-.023792.211-.148913.35142-.375541.42099-.105218.03227-.278444.05883-.519983.07983-.233439.01853-.507227.03642-.820973.05302-.303158.02226-.623747.0452-.961774.0692-.327451.0296-.643933.06463-.950217.10556-.298195.03839-.556864.09118-.7754.15826-.696074.21367-1.208576.53513-1.537529.96381-.318371.43428-.485722.94159-.502282 1.52235-.022175.5909.072615 1.23028.283469 1.91768.156538.5099.382769 1.0161.678739 1.51864.295976.50254.635835.94704 1.020274 1.33385.395019.39243.810086.67726 1.245085.8537.437483.18452.879251.20844 1.324416.07179.202346-.06212.338756-.16614.409191-.31176.070435-.14561.065873-.34794-.013635-.60694-.06957-.22664-.180236-.41418-.332026-.56243-.143694-.15073-.296721-.30299-.459088-.45685-.151789-.14826-.267559-.35178-.347068-.61079-.08696-.28328-.100534-.5006-.040681-.65182.067949-.15372.211095-.26417.429632-.33125.105217-.03226.246713-.06224.424138-.09017.177424-.02787.373567-.05285.588338-.07451.222872-.02407.450826-.04512.684264-.06365.235937-.0104.458663-.02118.66782-.03225.211644-.00266.401385-.00333.570079-.00199.337384.00272.579867.07016.726686.20222.157396.13767.271442.29297.342293.46607.093852.21917.197128.49752.309577.83498.123027.34307.25762.6956.404289 1.05798.216953.44708.537654.81381.962 1.09981.42683.29409.939764.34915 1.538711.16529.404694-.12424.674001-.34395.807418-.65946.135895-.30741.177489-.64799.124829-1.02151-.032853-.19362-.064542-.38334-.094949-.56886-.030347-.18552-.063591-.37907-.098944-.58077-.02476-.1961-.051726-.40007-.08148-.61235-.037197-.23657-.012422-.43061.074202-.58119.097197-.14503.256093-.24692.477117-.30585.091503-.01934.204345-.04054.33883-.06401.134485-.02346.274695-.04401.419778-.06174.153153-.02033.292771-.04131.419187-.06217.134474-.0236.238063-.04612.310909-.06845.728448-.22363 1.191857-.50337 1.390025-.83875.156559-.24734.189187-.61368.098349-1.09893m-8.633231-39.05118c-.076798-.59638-.210942-1.205888-.402259-1.829118-.429843-1.400241-1.077123-2.614503-1.941702-3.642161-.862094-1.019565-1.896126-1.791395-3.102153-2.315689-1.197932-.526779-2.527883-.747337-3.989525-.661766-.241536.021007-.490818.044786-.748541.070766-.247143.031598-.501164.069595-.762012.114255-.252754.042168-.503179.092348-.750964.150694-.247786.05835-.485288.122514-.711916.192084-.906514.27828-1.619491.696419-2.139003 1.254445-.517033.566122-.653442 1.245576-.409944 2.038775.295671.963171.717507 1.630745 1.26567 2.002724.558738.377592 1.276704.538295 2.15382.481596.192971-.00612.398361-.029768.616258-.070068.217894-.040319.446404-.088141.686096-.144007.247786-.058358.501037-.113953.759401-.166693.266459-.055222.542197-.108678.827327-.160784.287614-.044013.584124-.07343.889772-.087543.796813-.058616 1.452628.085919 1.966572.432976.516427.355152.871169.848199 1.064971 1.479524.173924.56657.262868 1.05726.266335 1.47246.00346.4152.078609.86176.225203 1.3393.144109.46944.365126.8577.663094 1.16478.297969.30708.647801.5095 1.04986.6075.404543.10605.829602.09077 1.274766-.04588.3966-.12175.699194-.36091.90858-.71746.21187-.34845.34141-.77767.38843-1.28807.055109-.51289.03924-1.07065-.048136-1.67264m8.789307 55.19836c-.109175-.58644-.249095-1.15887-.420535-1.71735-.258403-.84177-.576716-1.66057-.954041-2.45696-.369233-.79889-.804755-1.49802-1.307329-2.09655-.50009-.59044-1.072756-1.01227-1.71748-1.26604-.644724-.25374-1.359342-.26046-2.14445-.01945-.56657.17393-1.007493.45582-1.3221.84466-.312123.39694-.510203.9047-.594643 1.52401-.084437.61932-.075606 1.35617.027165 2.21028.075516.64992.113404 1.14775.113182 1.49323.002259.35358-.035854.60435-.114384.75244-.07853.14811-.194618.24545-.3484.29265-.29138.08945-.551399.05001-.780362-.11883-.226478-.16075-.419344-.39817-.577871-.71263-.158524-.31446-.295025-.65817-.409322-1.03049-.159014-.51801-.270681-.99717-.335134-1.43793-.061966-.43266-.113984-.83327-.15607-1.20119-.033992-.3704-.100699-.71709-.200085-1.04084-.178894-.58276-.475709-1.04549-.890682-1.3875-.406877-.3445-.901683-.42715-1.484442-.24825-.388509.11926-.678904.32809-.870821.62613-.191916.29805-.313105.66711-.363818 1.10779-.03882.39276-.029483.84182.028051 1.34669.060039.51297.158443 1.04938.295033 1.6097.130968.5709.282047 1.13582.453488 1.6943.285734.9308.633167 1.80287 1.04223 2.6161.411548.82132.894727 1.51424 1.448987 2.07918.556748.57305 1.183185.96975 1.879598 1.18994.704507.21773 1.489821.19349 2.355865-.07237.598947-.18386 1.059844-.47135 1.382545-.86268.325185-.38324.538383-.85612.640215-1.41877.101833-.56265.108099-1.20656.018313-1.93181-.088507-.77879-.112308-1.3471-.071615-1.705.040694-.35791.170059-.57056.388596-.63763.210441-.0646.396232-.03724.556756.08176.160522.11899.303158.29634.428745.53234.125589.236.23201.49578.31897.77906.136663.44518.24397.8946.321478 1.34906.079999.46256.154521.80724.224091 1.03388.099385.32375.249789.65403.45063.99092.211421.34251.473941.60727.788171.79421.322321.18447.702193.20983 1.139266.07569.331849-.10188.570148-.33472.715423-.69815.147763-.35534.217151-.79291.208151-1.31269.001578-.51417-.052193-1.06445-.161365-1.65091m-5.996345-36.12905c-.021924-.14716-.057335-.30042-.106406-.46028-.221133-.72035-.570944-1.26856-1.049388-1.64423-.475958-.36757-1.024423-.61084-1.645581-.73014-.261411-.04374-.523258-.07383-.785313-.09083-.251476-.01133-.501797-.01869-.750788-.02202-.248992-.00327-.503222-.00967-.76279-.01854-.251475-.01133-.51081-.0337-.777833-.0669-.745051-.09012-1.378103-.21893-1.899011-.38672-.518422-.15969-.933509-.38645-1.245181-.68047-.309187-.28592-.534348-.6595-.675972-1.12085-.126716-.41279-.153205-.77228-.078929-1.07849.084853-.3006.274473-.56246.569052-.78574s.689212-.41082 1.182938-.56238c.267101-.08195.607369-.15539 1.021359-.22052.413993-.0651.838327-.12473 1.273477-.1786.443242-.05637.839947-.10738 1.189189-.15258.357335-.04772.600512-.0914.730014-.13113.234723-.07205.438336-.18731.610867-.34656.180623-.16172.293556-.4.338583-.71495.047506-.30685-.007101-.71571-.163632-1.22562-.201257-.65561-.543056-1.19275-1.025828-1.61137-.480287-.41052-1.086402-.72453-1.817676-.94288-.558892-.14728-1.161649-.23714-1.809009-.26868-.636781-.0259-1.276243-.00196-1.918069.07108-.639341.08112-1.238281.20734-1.796759.37878-.866044.26586-1.579234.63959-2.139782 1.12165-.558065.49015-.965976 1.08071-1.22351 1.77087-.255046.69825-.362521 1.48804-.322014 2.37013.032418.88456.211704 1.85721.537191 2.91751.48699 1.5864 1.163397 2.92407 2.029185 4.01335.860171 1.09986 1.933087 1.92621 3.218772 2.47919 1.285686.55301 2.79909.81035 4.540818.77161.265172-.00173.549372-.01335.85254-.03555.305656-.01407.604755-.03524.897335-.06311.300702-.03017.57764-.0666.830365-.10894.263335-.03655.484107-.08186.662171-.13652.663699-.20374 1.110397-.52271 1.340376-.95643.178554-.32715.235011-.71169.169239-1.15314m-7.465043-36.675493c.01833.096705.027627.198153.027627.304339 0 .384293-.111201.7183-.333686 1.001462-.212372.27305-.531256.500603-.956.682637-.414632.182033-.930372.313539-1.547262.394442-.61689.080904-1.33477.121263-2.15392.121263-.424744 0-.793919-.1065-1.107421-.318873-.313502-.222485-.571491-.510584-.77375-.864537-.192146-.364066-.338824-.758365-.439954-1.183109-.101129-.434858-.151807-.864519-.151807-1.289263 0-.17192.040537-.308629.12144-.409759.080904-.101127.18199-.176802.303345-.227369.121356-.060677.252954-.101332.394536-.121559.141581-.020226.273058-.030485.394414-.030485.434857 0 .925579.010275 1.471678.030501.556213.020226 1.112236.071007 1.668449.151911.556213.070791 1.066639.186683 1.531834.34849.475309.161807.854805.384587 1.137968.66775.219957.204787.35752.452043.412509.742159m6.326045 45.597913c-.019396-.14793-.053711-.30254-.103404-.46442-.268341-.87414-.678019-1.54531-1.229232-2.01377-.548728-.46037-1.243666-.80527-2.084489-1.03427-.287539-.07115-.62346-.1275-1.008126-.16883-.376573-.04385-.781952-.07904-1.215182-.10544-.430745-.0182-.866818-.02567-1.308782-.023-.44196.0028-.87193.01523-1.290255.03736-.415837.0302-.802467.06929-1.159802.11702-.354848.05581-.657729.12185-.908639.19888-.42088.1292-.756131.30751-1.005269.53455-.238563.23265-.380736.53328-.427043.90176-.054358.37083.001394.82735.167733 1.3694l.000082.00051c.19628.63918.480093 1.14531.851374 1.51831.371379.37311.857037.68459 1.456324.9346.28626.12468.633235.23109 1.040902.3185.415762.08493.861572.15172 1.337117.20059.475543.04886.963204.08043 1.46367.0951.500468.01486.98676.01211 1.458612-.00876.471862-.02079.907799-.05721 1.308084-.10928.400286-.05205.73816-.12064 1.013351-.20512.663699-.20373 1.133394-.52064 1.408811-.9506.214498-.31826.292348-.6993.234163-1.14309m-9.174982-53.253469c.016434.101129.024581.206054.024581.314768 0 .384292-.126549.692425-.379373.925023s-.581311.419699-.985829.561281c-.333727.101129-.687793.187088-1.061972.257879-.37418.070789-.783822.1263-1.228792.166753-.444971.03034-.935542.045876-1.471529.045876-.293275 0-.520658-.106274-.682465-.318646s-.283355-.520645-.364259-.925163c-.020227-.131469-.045112-.278287-.075452-.440094s-.061006-.328433-.091346-.500353-.055484-.338947-.07571-.500755c-.010114-.17192-.015029-.323498-.015029-.454967 0-.333727.09608-.601991.288226-.80425.202259-.202259.46476-.343689.788375-.424593.323614-.091016.672595-.136665 1.046775-.136665.475308 0 .960755.055679 1.45629.166922.505648.10113.976172.25796 1.41103.470332.434857.202259.783374.464989 1.046311.788604.197202.235126.320868.504659.370168.808048m-6.253198 6.361029c.005934.047478.002146.098802-.011599.153608-.017031.075603-.071296.155758-.163005.241085-.087402.080711-.181745.12663-.28318.137283-.101429.010651-.200062.000366-.295783-.030255-.098357-.029639-.18986-.073809-.274939-.132485-.084094-.056029-.154041-.109591-.209408-.161256-.154228-.147369-.283897-.300985-.388546-.460784-.107274-.158821-.194719-.31724-.262707-.475628-.069628-.154767-.123641-.307953-.162231-.459216-.038276-.151379-.06472-.294988-.079251-.431114-.03688-.317524-.026096-.628721.032125-.933461l.00051-.000081c.015392-.071977.038605-.138023.070443-.198058.030872-.062687.07125-.117163.120577-.162623.049307-.045455.109858-.079969.182274-.103914.069747-.022974.151013-.032159.243168-.027286.113612.005892.200098.035636.259099.088962.057991.050688.100808.105323.128762.16418.031579.069553.049828.147037.054886.232485.00287.185636.018079.360603.046064.524847.027984.164243.064368.317833.10861.460968.044243.143135.093418.275821.147623.39718s.110435.231123.168308.330036c.133855.230236.284018.431884.450758.604708.054712.057932.09084.122904.108502.194625.004164.015012.006962.030368.00894.046194" transform="rotate(-80.934662 -75.851777 -8.5706116)"/></svg>
