<svg xmlns="http://www.w3.org/2000/svg" xmlns:xlink="http://www.w3.org/1999/xlink" fill="none" viewBox="0 0 49.836636 49.836601"><g clip-path="url(#a)" transform="translate(-.081665 -14.0817)"><g clip-path="url(#b)"><path fill="url(#c)" fill-rule="evenodd" d="M25 63.9183c-11.7465 0-17.61976 0-21.2703-3.6505C.081665 56.6222.081665 50.7465.081665 39s0-17.6197 3.648035-21.2703c3.65303-3.648 9.5238-3.648 21.2703-3.648s17.6197 0 21.2677 3.648c3.6506 3.6531 3.6506 9.5238 3.6506 21.2703s0 17.6197-3.6506 21.2678C42.6222 63.9183 36.7465 63.9183 25 63.9183m4.874-19.6979c-.4809.4236-1.0964.6678-2.3224 1.1587-5.7561 2.3024-8.6342 3.4537-10.2763 2.3373-.3902-.265-.7267-.6015-.9918-.9917-1.1163-1.6446.0349-4.5202 2.3374-10.2763.4909-1.2285.7351-1.844 1.1587-2.3224.108-.1246.2234-.2409.3463-.3489.481-.4211 1.0965-.6653 2.3224-1.1562 5.7562-2.3024 8.6342-3.4537 10.2763-2.3373.3902.265.7267.6015.9918.9917 1.1163 1.6446-.0349 4.5202-2.3373 10.2763-.4909 1.2285-.7351 1.844-1.1587 2.3224-.108.1246-.2235.2384-.3464.3464" clip-rule="evenodd"/></g></g><defs><clipPath id="a"><path fill="#fff" d="M305 0H0v77h305z"/></clipPath><clipPath id="b"><path fill="#fff" d="M0 14h50v50H0Z"/></clipPath><linearGradient id="c" x1="-3.5e-7" x2="50" y1="14" y2="64" gradientUnits="userSpaceOnUse"><stop stop-color="#fde047"/><stop offset=".5" stop-color="#f97316"/><stop offset="1" stop-color="#f43f5e"/></linearGradient></defs></svg>
